<svg height='300px' width='300px'  fill="#000000" xmlns="http://www.w3.org/2000/svg" xmlns:xlink="http://www.w3.org/1999/xlink" version="1.1" x="0px" y="0px" viewBox="0 0 100 100" enable-background="new 0 0 100 100" xml:space="preserve"><path d="M65.5,8c-11.3,0-16,10.3-18,21.2C37.1,30.5,29.1,39.3,29.1,50c0,9.8,6.8,18.1,16,20.3c-1.1,9.2-3.3,18-8,18.4  c-5.6,0.4-4.6-6.5-9.3-4.2c-4,2,2.1,7.4,6.7,7.4c11.3,0,16-10.3,18-21.2C62.9,69.5,70.9,60.7,70.9,50c0-9.8-6.8-18.1-16-20.3  c1.1-9.2,3.3-18,8-18.4c5.6-0.4,4.6,6.5,9.3,4.2C76.2,13.4,70.2,8,65.5,8z M33.1,50c0-8.2,5.9-15.1,13.7-16.6  C46,40.1,46,46.7,46,50.8c0,2.8,0,8.9-0.6,15.5C38.3,64.3,33.1,57.7,33.1,50z M66.9,50c0,8.2-5.9,15.1-13.7,16.6  C54,59.9,54,53.3,54,49.2c0-2.8,0-8.9,0.6-15.5C61.7,35.7,66.9,42.3,66.9,50z"></path></svg>