<svg height='300px' width='300px'  fill="#000000" xmlns:dc="http://purl.org/dc/elements/1.1/" xmlns:cc="http://creativecommons.org/ns#" xmlns:rdf="http://www.w3.org/1999/02/22-rdf-syntax-ns#" xmlns:svg="http://www.w3.org/2000/svg" xmlns="http://www.w3.org/2000/svg" xmlns:sodipodi="http://sodipodi.sourceforge.net/DTD/sodipodi-0.dtd" xmlns:inkscape="http://www.inkscape.org/namespaces/inkscape" viewBox="0 0 16.933333 16.933334" version="1.1" x="0px" y="0px"><g transform="translate(0,-280.06665)"><g style="" transform="matrix(0.26458334,0,0,0.26458334,-595.31249,-248.6667)" fill="#000000" fill-opacity="1" stroke="none"><path style="color:#000000;font-style:normal;font-variant:normal;font-weight:normal;font-stretch:normal;font-size:medium;line-height:normal;font-family:sans-serif;font-variant-ligatures:normal;font-variant-position:normal;font-variant-caps:normal;font-variant-numeric:normal;font-variant-alternates:normal;font-feature-settings:normal;text-indent:0;text-align:start;text-decoration:none;text-decoration-line:none;text-decoration-style:solid;text-decoration-color:#000000;letter-spacing:normal;word-spacing:normal;text-transform:none;writing-mode:lr-tb;direction:ltr;text-orientation:mixed;dominant-baseline:auto;baseline-shift:baseline;text-anchor:start;white-space:normal;shape-padding:0;clip-rule:nonzero;display:inline;overflow:visible;visibility:visible;opacity:1;isolation:auto;mix-blend-mode:normal;color-interpolation:sRGB;color-interpolation-filters:linearRGB;solid-color:#000000;solid-opacity:1;vector-effect:none;fill:#000000;fill-opacity:1;fill-rule:nonzero;stroke:none;stroke-width:1.99999988;stroke-linecap:round;stroke-linejoin:round;stroke-miterlimit:4;stroke-dasharray:none;stroke-dashoffset:0;stroke-opacity:1;color-rendering:auto;image-rendering:auto;shape-rendering:auto;text-rendering:auto;enable-background:accumulate" d="m 2274.9998,2002.3622 c -3.3018,0 -6,2.6981 -6,6 a 1.0000999,1.0000999 0 0 0 0.053,0.3301 c -2.352,0.8128 -4.0527,3.0475 -4.0527,5.668 0,0.1733 0.011,0.3438 0.025,0.5137 -0.09,0.08 -0.1824,0.1589 -0.2676,0.2441 -1.0847,1.0845 -1.7578,2.5915 -1.7578,4.2422 0,1.766 0.7765,3.353 2,4.4531 v 0.5566 c 0,2.669 1.6864,4.977 4.0313,5.7286 a 1.0000999,1.0000999 0 0 0 -0.031,0.2636 c 0,3.3018 2.6982,6 6,6 3.3019,0 6,-2.6982 6,-6 v -22 c 0,-3.3019 -2.6981,-6 -6,-6 z m 0,2 c 2.221,0 4,1.779 4,4 v 22 c 0,2.2209 -1.779,4 -4,4 -2.2209,0 -4,-1.7791 -4,-4 a 1.0000999,1.0000999 0 0 0 0,-0.022 c 1.4527,-0.087 2.768,-0.7466 3.7188,-1.7597 a 1.0004642,1.0003775 0 1 0 -1.459,-1.3692 c -0.6733,0.7176 -1.5757,1.1465 -2.5801,1.1465 -1.8063,0 -3.3283,-1.4105 -3.6191,-3.3281 0.6092,0.2096 1.261,0.3281 1.9394,0.3281 2.9632,0 5.4332,-2.1739 5.9102,-5.0058 0.027,5e-4 0.051,0.01 0.078,0.01 h 0.998 a 1.0000999,1.0000132 0 1 0 0,-2 h -0.998 c -1.1111,0 -1.9883,-0.8785 -1.9883,-1.9863 a 1.0000999,1.0000132 0 0 0 -1.0156,-1.0137 1.0000999,1.0000132 0 0 0 -0.9844,1.0137 c 0,1.447 0.7924,2.7096 1.957,3.4082 -0.2116,2.0166 -1.8808,3.5781 -3.957,3.5781 -2.221,0 -4,-1.7793 -4,-4 0,-0.8319 0.2491,-1.5978 0.6797,-2.2344 0.2845,0.5461 0.6475,1.046 1.0781,1.4766 a 1.0000999,1.0000132 0 1 0 1.4141,-1.4141 c -0.725,-0.7249 -1.1719,-1.7177 -1.1719,-2.8281 0,-2.2208 1.779,-4 4,-4 1.1105,0 2.1032,0.4469 2.8281,1.1719 a 1.0000999,1.0000132 0 1 0 1.4141,-1.4141 c -1.0847,-1.0847 -2.5913,-1.7578 -4.2422,-1.7578 0,-2.2201 1.7798,-3.9981 4,-3.9981 z"></path><path style="color:#000000;font-style:normal;font-variant:normal;font-weight:normal;font-stretch:normal;font-size:medium;line-height:normal;font-family:sans-serif;font-variant-ligatures:normal;font-variant-position:normal;font-variant-caps:normal;font-variant-numeric:normal;font-variant-alternates:normal;font-feature-settings:normal;text-indent:0;text-align:start;text-decoration:none;text-decoration-line:none;text-decoration-style:solid;text-decoration-color:#000000;letter-spacing:normal;word-spacing:normal;text-transform:none;writing-mode:lr-tb;direction:ltr;text-orientation:mixed;dominant-baseline:auto;baseline-shift:baseline;text-anchor:start;white-space:normal;shape-padding:0;clip-rule:nonzero;display:inline;overflow:visible;visibility:visible;opacity:1;isolation:auto;mix-blend-mode:normal;color-interpolation:sRGB;color-interpolation-filters:linearRGB;solid-color:#000000;solid-opacity:1;vector-effect:none;fill:#000000;fill-opacity:1;fill-rule:nonzero;stroke:none;stroke-width:1.99999988;stroke-linecap:round;stroke-linejoin:round;stroke-miterlimit:4;stroke-dasharray:none;stroke-dashoffset:0;stroke-opacity:1;color-rendering:auto;image-rendering:auto;shape-rendering:auto;text-rendering:auto;enable-background:accumulate" d="m 2288.9998,2002.3622 c -3.3018,0 -6,2.6981 -6,6 v 0.8438 a 1.0000999,1.0000132 0 0 1 0.014,0.1699 c 0,1.1078 0.8791,1.9843 1.9902,1.9843 h 0.9961 a 1.0000999,1.0000132 0 1 1 0,2 h -0.9961 c -0.7322,0 -1.4117,-0.2138 -2.0039,-0.5625 v 12.0625 c 0.5922,-0.3486 1.2717,-0.5625 2.0039,-0.5625 h 0.9961 a 1.0000999,1.0000132 0 1 1 0,2 h -0.9961 c -1.1111,0 -1.9902,0.8765 -1.9902,1.9844 a 1.0000999,1.0000132 0 0 1 -0.014,0.1797 v 1.9004 c 0,3.3018 2.6982,6 6,6 3.3019,0 6,-2.6982 6,-6 a 1.0000999,1.0000999 0 0 0 -0.033,-0.2617 c 2.3449,-0.7515 4.0332,-3.0595 4.0332,-5.7285 v -0.5586 c 1.2229,-1.1 2,-2.6877 2,-4.4532 0,-1.6507 -0.6731,-3.1595 -1.7578,-4.2441 -0.085,-0.085 -0.1772,-0.164 -0.2676,-0.2441 0.014,-0.1687 0.025,-0.3397 0.025,-0.5118 0,-2.6197 -1.7018,-4.8526 -4.0527,-5.666 a 1.0000999,1.0000999 0 0 0 0.053,-0.332 c 0,-3.3019 -2.6981,-6 -6,-6 z m 4.9727,9.998 a 1.0000999,1.0000132 0 0 1 1.0136,1.0137 c 0,2.6662 -1.5812,5.0167 -3.8301,5.7481 0.2922,0.7296 0.9995,1.2382 1.8438,1.2382 a 1.0000999,1.0000132 0 1 1 0,2 c -1.8602,0 -3.426,-1.2997 -3.8594,-3.0312 -0.5576,-0.063 -1.0903,-0.2232 -1.5801,-0.4629 a 1.0002562,1.0001696 0 1 1 0.879,-1.7969 c 0.3863,0.189 0.7995,0.291 1.2382,0.291 1.7548,0 3.3086,-1.7002 3.3086,-3.9863 a 1.0000999,1.0000132 0 0 1 0.9864,-1.0137 z"></path><path style="opacity:1;fill:#000000;fill-opacity:1;stroke:none;stroke-width:2;stroke-linecap:round;stroke-linejoin:round;stroke-miterlimit:4;stroke-dasharray:none;stroke-opacity:1" d="m 2260,2032.3622 c -1.1046,0 -2,0.8954 -2,2 v 11 c 0,4 8,7 12,9.9863 v 3.0137 h 11 v -9.0722 c 0,-4.9278 -3,-5.9278 -8,-6.9278 l -6.0156,-1.8655 c -1.1588,-0.4298 -2.4317,0.1748 -2.8535,1.3554 -0.3588,1.0041 0.091,2.1287 0.9433,2.7149 1.9258,0.7952 5.9626,2.3575 7.2735,2.8437 1.2846,0.4475 0.5704,2.3734 -0.6954,1.875 l -7.4101,-3.1191 c -0.8884,-0.3296 -1.4719,-1.0362 -1.7988,-1.7402 -0.327,-0.704 -0.446,-1.4298 -0.4434,-2.0645 v -8 c 0,-1.1046 -0.8954,-2 -2,-2 z"></path><path d="m 2303.9998,2032.3622 c 1.1046,0 2,0.8954 2,2 v 11 c 0,4 -8,7 -12,9.9863 v 3.0137 h -11 v -9.0722 c 0,-4.9278 3,-5.9278 8,-6.9278 l 6.0156,-1.8655 c 1.1588,-0.4298 2.4317,0.1748 2.8535,1.3554 0.3588,1.0041 -0.091,2.1287 -0.9433,2.7149 -1.9258,0.7952 -5.9626,2.3575 -7.2735,2.8437 -1.2846,0.4475 -0.5704,2.3734 0.6954,1.875 l 7.4101,-3.1191 c 0.8884,-0.3296 1.4719,-1.0362 1.7988,-1.7402 0.327,-0.704 0.446,-1.4298 0.4434,-2.0645 v -8 c 0,-1.1046 0.8954,-2 2,-2 z" style="opacity:1;fill:#000000;fill-opacity:1;stroke:none;stroke-width:2;stroke-linecap:round;stroke-linejoin:round;stroke-miterlimit:4;stroke-dasharray:none;stroke-opacity:1"></path></g></g></svg>