<svg height='300px' width='300px'  fill="#000000" xmlns:dc="http://purl.org/dc/elements/1.1/" xmlns:cc="http://creativecommons.org/ns#" xmlns:rdf="http://www.w3.org/1999/02/22-rdf-syntax-ns#" xmlns:svg="http://www.w3.org/2000/svg" xmlns="http://www.w3.org/2000/svg" viewBox="0 0 64 64" version="1.1" xml:space="preserve" style="" x="0px" y="0px" fill-rule="evenodd" clip-rule="evenodd" stroke-linecap="round" stroke-linejoin="round" stroke-miterlimit="2"><path style="color:#000000;font-style:normal;font-variant:normal;font-weight:normal;font-stretch:normal;font-size:medium;line-height:normal;font-family:sans-serif;font-variant-ligatures:normal;font-variant-position:normal;font-variant-caps:normal;font-variant-numeric:normal;font-variant-alternates:normal;font-variant-east-asian:normal;font-feature-settings:normal;font-variation-settings:normal;text-indent:0;text-align:start;text-decoration:none;text-decoration-line:none;text-decoration-style:solid;text-decoration-color:#000000;letter-spacing:normal;word-spacing:normal;text-transform:none;writing-mode:lr-tb;direction:ltr;text-orientation:mixed;dominant-baseline:auto;baseline-shift:baseline;text-anchor:start;white-space:normal;shape-padding:0;shape-margin:0;inline-size:0;clip-rule:nonzero;display:inline;overflow:visible;visibility:visible;isolation:auto;mix-blend-mode:normal;color-interpolation:sRGB;color-interpolation-filters:linearRGB;solid-color:#000000;solid-opacity:1;vector-effect:none;fill:#000000;fill-opacity:1;fill-rule:nonzero;stroke:none;stroke-width:3px;stroke-linecap:butt;stroke-linejoin:miter;stroke-miterlimit:2;stroke-dasharray:none;stroke-dashoffset:0;stroke-opacity:1;filter-blend-mode:normal;filter-gaussianBlur-deviation:0;color-rendering:auto;image-rendering:auto;shape-rendering:auto;text-rendering:auto;enable-background:accumulate;stop-color:#000000;stop-opacity:1;opacity:1" d="M 32 6.5 C 30.039407 6.5 28.218914 7.3853379 26.703125 8.7851562 C 25.187336 10.184975 23.915086 12.104845 22.859375 14.408203 C 22.620696 14.928953 22.397696 15.475652 22.181641 16.035156 C 21.061093 15.717942 19.966222 15.439024 18.927734 15.234375 C 17.595121 14.971764 16.336867 14.802297 15.160156 14.736328 C 13.983445 14.670359 12.888285 14.707912 11.882812 14.865234 C 9.8718702 15.179879 8.0959183 16.032268 7.1582031 17.65625 C 6.3069094 19.130459 6.3541625 20.904388 6.9160156 22.619141 C 7.4778687 24.333893 8.5432593 26.098962 10.003906 27.933594 A 1.5 1.5 0 0 0 12.111328 28.173828 A 1.5 1.5 0 0 0 12.349609 26.066406 C 11.037257 24.418038 10.161272 22.893045 9.765625 21.685547 C 9.3699781 20.478049 9.4441531 19.696041 9.7558594 19.15625 C 10.099144 18.561732 10.862083 18.062215 12.345703 17.830078 C 13.829323 17.597942 15.911132 17.697581 18.347656 18.177734 C 19.259201 18.357368 20.234049 18.60509 21.236328 18.886719 C 20.51534 21.392988 19.993306 24.161184 19.722656 27.123047 C 18.061105 28.331074 16.537228 29.558531 15.140625 30.787109 A 1.5 1.5 0 0 0 14.912109 30.990234 C 13.421451 32.31643 12.078693 33.642345 10.945312 34.939453 C 9.1579366 36.985033 7.8364094 38.956599 7.1035156 40.855469 C 6.3706218 42.754339 6.2204729 44.719742 7.1582031 46.34375 C 8.0959183 47.967732 9.8718702 48.820121 11.882812 49.134766 C 13.893756 49.44941 16.262508 49.290847 18.927734 48.765625 C 19.96566 48.561086 21.059786 48.281827 22.179688 47.964844 C 22.964525 50.005439 23.903042 51.804467 24.994141 53.285156 C 26.848637 55.801825 29.25229 57.5 32 57.5 C 33.960593 57.5 35.781086 56.614662 37.296875 55.214844 C 38.812664 53.815025 40.084914 51.895155 41.140625 49.591797 C 41.379304 49.071047 41.602304 48.524348 41.818359 47.964844 C 42.938907 48.282058 44.033778 48.560976 45.072266 48.765625 C 47.737492 49.290847 50.106244 49.44941 52.117188 49.134766 C 54.12813 48.820121 55.904082 47.967732 56.841797 46.34375 C 57.779527 44.719742 57.629378 42.754339 56.896484 40.855469 C 56.163591 38.956599 54.842064 36.985033 53.054688 34.939453 C 52.209053 33.971659 51.249079 32.987682 50.201172 32 C 51.249079 31.012318 52.209053 30.028341 53.054688 29.060547 C 54.842064 27.014967 56.163591 25.043401 56.896484 23.144531 C 57.629378 21.245661 57.779527 19.280258 56.841797 17.65625 C 56.040264 16.268391 54.601017 15.432337 52.970703 15.035156 C 52.155546 14.836566 51.275074 14.733559 50.332031 14.710938 C 49.388988 14.688315 48.384056 14.746768 47.320312 14.875 A 1.5 1.5 0 0 0 46.011719 16.542969 A 1.5 1.5 0 0 0 47.679688 17.853516 C 49.5672 17.62598 51.148033 17.679853 52.261719 17.951172 C 53.375405 18.222491 53.950673 18.648109 54.244141 19.15625 C 54.58741 19.750742 54.638356 20.663542 54.097656 22.064453 C 53.556956 23.465364 52.430874 25.215892 50.796875 27.085938 C 49.971232 28.030852 49.016976 29.007094 47.951172 29.998047 C 46.806449 29.03318 45.583207 28.072472 44.277344 27.123047 C 43.958583 23.634679 43.295551 20.410143 42.361328 17.576172 A 1.5 1.5 0 0 0 42.322266 17.416016 A 1.5 1.5 0 0 0 42.226562 17.185547 C 41.892953 16.213759 41.537949 15.275088 41.140625 14.408203 C 40.084914 12.104845 38.812664 10.184975 37.296875 8.7851562 C 35.781086 7.3853379 33.960593 6.5 32 6.5 z M 32 9.5 C 33.074907 9.5 34.145852 9.9597407 35.261719 10.990234 C 36.377586 12.020728 37.476696 13.617311 38.412109 15.658203 C 38.597451 16.062582 38.771399 16.496131 38.943359 16.933594 C 36.717847 17.706831 34.383662 18.672365 31.994141 19.818359 C 29.608959 18.674121 27.279809 17.707316 25.056641 16.935547 C 25.228808 16.497471 25.402307 16.06311 25.587891 15.658203 C 26.523304 13.617311 27.622414 12.020728 28.738281 10.990234 C 29.854148 9.9597407 30.925093 9.5 32 9.5 z M 39.892578 19.779297 C 40.340721 21.354932 40.713479 23.056016 40.982422 24.873047 C 39.824741 24.121899 38.636191 23.380156 37.392578 22.662109 C 36.730011 22.27958 36.069634 21.919453 35.410156 21.5625 C 36.947336 20.88749 38.451847 20.281225 39.892578 19.779297 z M 24.105469 19.785156 C 25.548485 20.288113 27.048838 20.88025 28.589844 21.556641 C 27.930402 21.913443 27.269757 22.279658 26.607422 22.662109 C 25.363809 23.380156 24.175259 24.121899 23.017578 24.873047 C 23.286185 23.058286 23.658087 21.359168 24.105469 19.785156 z M 31.998047 23.167969 C 33.286441 23.816113 34.58576 24.505283 35.892578 25.259766 C 37.840893 26.384699 39.66796 27.563696 41.382812 28.761719 C 41.451363 29.822341 41.5 30.897714 41.5 32 C 41.5 33.102286 41.451363 34.177659 41.382812 35.238281 C 39.66796 36.436304 37.840893 37.615301 35.892578 38.740234 C 34.58655 39.494261 33.287633 40.18226 32 40.830078 C 30.712367 40.18226 29.41345 39.494261 28.107422 38.740234 C 26.156654 37.613917 24.327439 36.434768 22.611328 35.236328 C 22.543346 34.177313 22.5 33.100683 22.5 32 C 22.5 30.897714 22.548637 29.822341 22.617188 28.761719 C 24.33204 27.563696 26.159107 26.384699 28.107422 25.259766 C 29.41362 24.505529 30.710879 23.816057 31.998047 23.167969 z M 32 25 C 28.151774 25 25 28.151774 25 32 C 25 35.848226 28.151774 39 32 39 C 35.639279 39 38.562072 36.150753 38.878906 32.589844 A 1.5 1.5 0 0 0 38.880859 32.583984 A 1.5 1.5 0 0 0 39 32 A 1.5 1.5 0 0 0 38.880859 31.412109 C 38.565141 27.850092 35.640078 25 32 25 z M 32 28 C 34.226906 28 36 29.773094 36 32 C 36 34.226906 34.226906 36 32 36 C 29.773094 36 28 34.226906 28 32 C 28 29.773094 29.773094 28 32 28 z M 19.521484 31.041016 C 19.515885 31.361754 19.5 31.676299 19.5 32 C 19.5 32.322276 19.511993 32.637621 19.517578 32.957031 C 19.110139 32.636373 18.742242 32.316756 18.355469 31.996094 C 18.739367 31.678115 19.117216 31.35913 19.521484 31.041016 z M 44.478516 31.041016 C 44.884665 31.36061 45.264803 31.680544 45.650391 32 C 45.264803 32.319456 44.884665 32.63939 44.478516 32.958984 C 44.484115 32.638246 44.5 32.323701 44.5 32 C 44.5 31.676299 44.484115 31.361754 44.478516 31.041016 z M 16.0625 33.990234 C 17.331232 35.059825 18.680796 36.125567 20.146484 37.175781 A 1.5 1.5 0 0 0 20.150391 37.179688 A 1.5 1.5 0 0 0 20.419922 37.375 C 22.338525 38.736125 24.408289 40.068174 26.607422 41.337891 C 27.27254 41.721892 27.935656 42.083179 28.597656 42.441406 C 27.049813 43.121017 25.542722 43.714092 24.09375 44.21875 C 23.94837 43.709543 23.808832 43.191088 23.681641 42.654297 A 1.5 1.5 0 0 0 21.876953 41.541016 A 1.5 1.5 0 0 0 20.763672 43.345703 C 20.906891 43.950138 21.065656 44.536694 21.230469 45.113281 C 20.230147 45.39422 19.257555 45.642957 18.347656 45.822266 C 15.911132 46.302419 13.829323 46.402058 12.345703 46.169922 C 10.862083 45.937785 10.099144 45.438268 9.7558594 44.84375 C 9.4125896 44.249258 9.3616438 43.336458 9.9023438 41.935547 C 10.443044 40.534636 11.569126 38.784109 13.203125 36.914062 C 14.032076 35.965362 14.991516 34.985275 16.0625 33.990234 z M 47.951172 34.001953 C 49.016976 34.992906 49.971232 35.969148 50.796875 36.914062 C 52.430874 38.784109 53.556956 40.534636 54.097656 41.935547 C 54.638356 43.336458 54.58741 44.249258 54.244141 44.84375 C 53.900856 45.438268 53.137917 45.937785 51.654297 46.169922 C 50.170677 46.402058 48.088868 46.302419 45.652344 45.822266 C 44.740799 45.642632 43.765951 45.39491 42.763672 45.113281 C 43.48466 42.607012 44.006694 39.838816 44.277344 36.876953 C 45.583207 35.927528 46.806449 34.96682 47.951172 34.001953 z M 40.982422 39.126953 C 40.713815 40.941714 40.341913 42.640832 39.894531 44.214844 C 38.449202 43.711081 36.945943 43.119154 35.402344 42.441406 C 36.064344 42.083179 36.72746 41.721892 37.392578 41.337891 C 38.636191 40.619844 39.824741 39.878101 40.982422 39.126953 z M 32 44.179688 C 34.38713 45.325101 36.718455 46.292081 38.943359 47.064453 C 38.771192 47.502529 38.597693 47.93689 38.412109 48.341797 C 37.476696 50.382689 36.377586 51.979272 35.261719 53.009766 C 34.145852 54.04026 33.074907 54.5 32 54.5 C 30.49371 54.5 28.92341 53.557487 27.410156 51.503906 C 26.549301 50.335671 25.749298 48.825378 25.054688 47.064453 C 27.280129 46.291977 29.612233 45.325407 32 44.179688 z "></path></svg>