<?xml version="1.0" encoding="utf-8"?>
<svg id="master-artboard" viewBox="0 0 1400 980" xmlns="http://www.w3.org/2000/svg" width="1400px" height="980px" version="1.1" style="shape-rendering:geometricPrecision; text-rendering:geometricPrecision; image-rendering:optimizeQuality; fill-rule:evenodd; clip-rule:evenodd"><rect id="ee-background" x="0" y="0" width="1400" height="980" style="fill: white; fill-opacity: 0; pointer-events: none;"/>
 
 <metadata id="CorelCorpID_0Corel-Layer"/>
<g transform="matrix(1.2836451530456543, 0, 0, 1.2836451530456543, -3.8844082306219434, -182.50883799668136)"><g transform="translate(0.000000,1080.000000) scale(0.100000,-0.100000)" fill="#e3e3e3" stroke="none">
<path d="M1610 6184 c-154 -42 -281 -174 -316 -331 -23 -106 -15 -359 15 -453&#10;50 -157 175 -301 322 -369 115 -54 162 -61 405 -61 201 0 222 2 237 18 24 26&#10;21 45 -13 99 -70 110 -73 128 -80 453 -6 277 -8 299 -30 355 -88 228 -316 349&#10;-540 289z m189 -105 c68 -14 162 -77 200 -133 61 -88 64 -104 71 -426 6 -307&#10;6 -304 55 -422 7 -17 -3 -18 -133 -18 -170 0 -226 10 -318 55 -121 59 -214&#10;167 -260 305 -16 45 -19 85 -19 220 0 160 1 167 28 225 72 154 216 229 376&#10;194z" style="fill: rgb(0, 100, 125);"/>
<path d="M1527 5792 c-13 -14 -17 -38 -17 -100 0 -76 2 -83 26 -98 24 -16 27&#10;-16 52 3 25 18 27 27 30 96 2 66 0 79 -18 97 -25 25 -52 26 -73 2z" style="fill: rgb(0, 100, 125);"/>
<path d="M1860 5790 c-16 -16 -20 -33 -20 -89 0 -84 5 -100 38 -112 18 -7 31&#10;-5 48 6 22 14 24 22 24 99 0 68 -3 86 -18 99 -25 22 -48 21 -72 -3z" style="fill: rgb(0, 100, 125);"/>
<path d="M1642 5514 c-24 -17 -30 -62 -10 -82 8 -8 45 -12 100 -12 76 0 89 2&#10;98 19 31 59 -5 91 -100 91 -43 0 -73 -5 -88 -16z" style="fill: rgb(0, 100, 125);"/>
<path d="M790 5935 c-138 -43 -200 -192 -134 -322 28 -58 79 -97 199 -152 86&#10;-40 105 -56 105 -93 0 -66 -120 -72 -275 -13 l-66 24 3 -96 3 -97 55 -20 c44&#10;-16 80 -20 175 -20 105 -1 127 2 173 23 149 67 200 253 101 366 -19 21 -77 58&#10;-150 95 -132 68 -157 93 -124 130 25 27 104 27 190 -1 36 -12 67 -20 69 -18 3&#10;2 18 38 34 79 l30 75 -22 12 c-77 41 -275 56 -366 28z" style="fill: rgb(0, 100, 125);"/>
<path d="M4159 5928 c-161 -57 -242 -184 -242 -383 0 -192 78 -325 224 -382&#10;63 -24 276 -24 382 0 l77 18 0 215 0 214 -170 0 -170 0 0 -80 0 -80 70 0 70 0&#10;0 -65 0 -65 -74 0 c-89 0 -129 22 -164 90 -20 39 -23 57 -20 140 2 68 9 106&#10;22 133 41 82 142 114 266 83 36 -9 71 -18 79 -19 13 -2 71 119 71 149 0 26&#10;-91 47 -225 51 -116 3 -137 1 -196 -19z" style="fill: rgb(0, 100, 125);"/>
<path d="M5671 5888 c-191 -593 -234 -719 -241 -712 -4 5 -53 77 -109 161&#10;l-101 151 53 54 c40 39 56 65 65 100 32 126 -10 220 -120 269 -49 22 -69 24&#10;-250 27 l-198 4 0 -396 0 -396 105 0 105 0 0 145 0 145 28 0 c24 0 35 -14 110&#10;-145 l84 -145 233 0 233 0 19 73 20 72 130 3 130 3 18 -76 19 -75 117 0 117 0&#10;-52 163 c-29 89 -88 269 -132 400 l-79 237 -142 0 -141 0 -21 -62z m208 -251&#10;c23 -87 41 -160 41 -163 0 -2 -36 -4 -80 -4 -57 0 -80 4 -80 13 0 14 73 317&#10;76 314 1 -1 20 -73 43 -160z m-769 118 c28 -26 27 -86 -3 -121 -18 -21 -35&#10;-28 -75 -32 l-52 -5 0 93 0 92 55 -4 c34 -3 62 -12 75 -23z" style="fill: rgb(0, 100, 125);"/>
<path d="M2452 5653 c3 -276 4 -290 26 -339 48 -107 139 -163 277 -172 173&#10;-10 289 48 347 173 22 48 23 62 26 338 l3 287 -104 0 -105 0 -4 -267 c-3 -292&#10;-8 -316 -63 -341 -37 -17 -106 -15 -133 4 -49 34 -52 54 -52 339 l0 265 -111&#10;0 -110 0 3 -287z" style="fill: rgb(0, 100, 125);"/>
<path d="M3300 5545 l0 -395 260 0 260 0 0 85 0 85 -155 0 -155 0 0 310 0 310&#10;-105 0 -105 0 0 -395z" style="fill: rgb(0, 100, 125);"/>
<path d="M6330 5545 l0 -395 105 0 105 0 0 129 0 128 82 7 c180 15 266 96 276&#10;257 4 67 1 84 -21 131 -51 113 -118 138 -367 138 l-180 0 0 -395z m336 200&#10;c17 -23 18 -94 1 -116 -19 -25 -52 -39 -91 -39 l-36 0 0 91 0 91 56 -4 c40 -3&#10;61 -10 70 -23z" style="fill: rgb(0, 100, 125);"/>
<path d="M7030 5545 l0 -395 105 0 105 0 0 160 0 160 125 0 125 0 0 -160 0&#10;-160 110 0 110 0 0 395 0 395 -110 0 -110 0 0 -145 0 -145 -125 0 -125 0 0&#10;145 0 145 -105 0 -105 0 0 -395z" style="fill: rgb(0, 100, 125);"/>
<path d="M7800 5934 c0 -3 56 -111 125 -240 l125 -233 0 -156 0 -155 110 0&#10;110 0 0 156 0 156 111 206 c61 114 120 222 131 240 l20 32 -119 0 -118 -1 -64&#10;-139 c-35 -77 -67 -140 -70 -140 -3 0 -35 63 -70 140 l-64 140 -113 0 c-63 0&#10;-114 -3 -114 -6z" style="fill: rgb(0, 100, 125);"/>
<path d="M8940 5545 l0 -395 96 0 97 0 -5 282 -5 283 81 -283 80 -282 102 0&#10;102 0 80 283 80 282 -5 -282 -6 -283 101 0 102 0 0 395 0 395 -143 0 -143 0&#10;-78 -275 c-43 -151 -81 -275 -85 -275 -3 0 -42 124 -86 275 l-80 275 -142 0&#10;-143 0 0 -395z" style="fill: rgb(0, 100, 125);"/>
<path d="M10010 5545 l0 -395 235 0 235 0 0 85 0 85 -125 0 -125 0 0 75 0 75&#10;115 0 115 0 0 90 0 90 -115 0 -115 0 0 60 0 60 125 0 125 0 0 85 0 85 -235 0&#10;-235 0 0 -395z" style="fill: rgb(0, 100, 125);"/>
<path d="M8625 5328 c-33 -19 -44 -41 -45 -86 0 -35 6 -49 29 -73 25 -24 38&#10;-29 79 -29 40 0 57 6 81 26 27 22 31 32 31 74 0 68 -33 100 -104 100 -28 0&#10;-60 -6 -71 -12z" style="fill: rgb(0, 100, 125);"/>
</g></g></svg>