<svg height='300px' width='300px'  fill="#000000" xmlns="http://www.w3.org/2000/svg" xmlns:xlink="http://www.w3.org/1999/xlink" xml:space="preserve" version="1.1" style="shape-rendering:geometricPrecision;text-rendering:geometricPrecision;image-rendering:optimizeQuality;" viewBox="0 0 847 847" x="0px" y="0px" fill-rule="evenodd" clip-rule="evenodd"><defs><style type="text/css">
   
    .fil0 {fill:#000000}
   
  </style></defs><g><path class="fil0" d="M530 221l79 0 -1 -48 -67 0 61 -152 -77 0 -39 72 -13 -72 -63 0 -15 69 -33 -69 -108 0 65 152 -65 -2 0 50 62 0c-251,148 -383,605 107,605 490,0 359,-457 107,-605zm-79 456l0 47 -45 0 0 -44c-32,-1 -62,-10 -80,-20l14 -54c27,14 123,41 123,-9 0,-51 -134,-33 -134,-126 0,-41 29,-73 79,-83l0 -44 46 0 0 41c31,2 52,8 67,15l-13 53c-24,-10 -107,-35 -107,10 0,45 133,31 133,128 0,41 -29,77 -83,86z"></path></g></svg>