<svg height='300px' width='300px'  fill="#000000" xmlns="http://www.w3.org/2000/svg" xmlns:xlink="http://www.w3.org/1999/xlink" version="1.1" x="0px" y="0px" viewBox="0 0 66 66" enable-background="new 0 0 66 66" xml:space="preserve"><g><path d="M49.8,34.1c-0.5-0.6-0.8-1-3.8-8.5h-6.6c-0.4,0-0.9,0.2-1.2,0.5l-4.8,4.8c-0.7,0.7-1.7,1.1-2.7,1.1c-0.5,0-1-0.1-1.5-0.3   c-1.3-0.5-2.2-1.7-2.3-3.1c0-0.2,0-0.3,0-0.4V7.9C18.5,6.6,10.5,10,5.4,17.1c-5.7,8-5.8,18.3-0.3,26.2c6.5,9.3,6.3,17.3,6.3,19.9   c0,0.5,0,0.8,0,1c0.1,0.5,0.5,0.8,1,0.8h24.9c0.5,0,1-0.5,1-1V53h5.1c1.6,0,2.9-1.3,2.9-2.9v-7.5c0-0.5,0.4-0.9,0.8-0.9h0l3.3,0   c1.5,0.1,2.7-1.6,1.9-3.2C50.8,35.2,50.3,34.6,49.8,34.1z"></path><path d="M59.6,1H34.3c-3,0-5.4,2.4-5.4,5.4v21.8c0,0,0,0.1,0,0.1c0.1,0.7,0.5,1.3,1.2,1.5c0.7,0.3,1.5,0.1,2-0.4l4.8-4.8   c0.7-0.7,1.6-1.1,2.6-1.1h20.1c3,0,5.4-2.4,5.4-5.4V6.4C65,3.4,62.6,1,59.6,1z M54.7,18.2H39.2c-0.5,0-1-0.4-1-1c0-0.5,0.5-1,1-1   h15.5c0.5,0,1,0.5,1,1C55.7,17.7,55.3,18.2,54.7,18.2z M54.7,13.4H39.2c-0.5,0-1-0.5-1-1c0-0.6,0.5-1,1-1h15.5c0.5,0,1,0.4,1,1   C55.7,12.9,55.3,13.4,54.7,13.4z M54.7,8.5H39.2c-0.5,0-1-0.4-1-1c0-0.5,0.5-1,1-1h15.5c0.5,0,1,0.5,1,1   C55.7,8.1,55.3,8.5,54.7,8.5z"></path></g></svg>