<svg height='300px' width='300px'  fill="#000000" xmlns="http://www.w3.org/2000/svg" xmlns:xlink="http://www.w3.org/1999/xlink" version="1.1" x="0px" y="0px" viewBox="0 0 90 90" enable-background="new 0 0 90 90" xml:space="preserve"><path fill-rule="evenodd" clip-rule="evenodd" d="M50.364,86.794c-3.194-0.598-6.31-0.591-9.473,0.153  c-3.634,0.855-7.307,1.555-11.068,1.473c-2.732-0.059-5.373-0.5-7.627-2.224c-2.909-2.225-4.097-6.075-2.915-9.538  c1.182-3.459,3.537-6.045,6.288-8.327c2.035-1.687,4.099-3.343,6.076-5.094c2.781-2.465,4.814-5.544,6.892-8.588  c0.83-1.215,1.717-2.425,2.757-3.455c3.201-3.175,7.757-3.582,11.706-1.14c2.775,1.715,4.768,4.202,6.587,6.837  c1.854,2.686,3.561,5.479,5.499,8.101c1.289,1.743,2.941,3.212,4.307,4.904c1.298,1.605,2.583,3.257,3.616,5.037  c3.035,5.233,0.771,10.633-5.378,12.271c-2.454,0.654-4.955,0.808-7.477,0.771C60.145,88.039,53.592,87.397,50.364,86.794z"></path><path fill-rule="evenodd" clip-rule="evenodd" d="M9.335,40.792c1.1-2.87,3.657-4.104,6.658-3.42c1.97,0.45,3.68,1.429,5.155,2.762  c4.663,4.216,7.677,9.398,8.818,15.602c0.198,1.078,0.184,2.228,0.072,3.325c-0.277,2.69-2.085,4.356-4.788,4.512  c-3.615,0.209-6.791-0.929-9.544-3.246c-4.085-3.438-7.107-9.956-7.125-15.288C8.512,45.024,8.826,42.12,9.335,40.792z"></path><path fill-rule="evenodd" clip-rule="evenodd" d="M64.893,26.465c-0.168,4.416-1.195,8.509-3.411,12.235  c-0.636,1.07-1.5,2.063-2.444,2.879c-1.804,1.557-4.063,1.566-6.029,0.201c-2.031-1.411-3.383-3.392-4.237-5.64  c-2.013-5.3-2.011-10.646,0.143-15.918c1.09-2.67,3.243-4.258,5.914-5.132c2.363-0.773,4.453-0.135,6.232,1.539  c2.255,2.122,3.378,4.796,3.698,7.836C64.832,25.16,64.854,25.86,64.893,26.465z"></path><path fill-rule="evenodd" clip-rule="evenodd" d="M53.05,1.288c0.447,0.414,0.908,0.813,1.339,1.244  c2.009,2.01,3.783,4.192,4.919,6.827c0.245,0.567,0.437,1.168,0.559,1.772c0.238,1.191-0.187,1.82-1.361,2.106  c-0.349,0.085-0.712,0.133-1.072,0.158c-1.337,0.092-2.657,0.127-3.974,0.55c-1.506,0.482-2.637-0.405-2.497-2.009  c0.133-1.527,0.529-3.05,0.97-4.529C52.518,5.436,53.138,3.493,53.05,1.288z"></path><path fill-rule="evenodd" clip-rule="evenodd" d="M35.099,1.317c-0.427,0.435-0.87,0.855-1.278,1.307  c-1.91,2.103-3.581,4.365-4.59,7.052c-0.217,0.577-0.38,1.187-0.473,1.796c-0.181,1.2,0.272,1.808,1.459,2.038  c0.354,0.068,0.718,0.099,1.079,0.106c1.34,0.029,2.66,0.002,3.995,0.361c1.527,0.411,2.615-0.529,2.399-2.125  c-0.205-1.519-0.674-3.022-1.183-4.478C35.828,5.436,35.115,3.524,35.099,1.317z"></path><path fill-rule="evenodd" clip-rule="evenodd" d="M17.557,23.03c-0.447,0.414-0.909,0.813-1.339,1.244  c-2.007,2.01-3.784,4.191-4.919,6.827c-0.244,0.566-0.436,1.167-0.557,1.771c-0.239,1.19,0.186,1.82,1.36,2.105  c0.35,0.085,0.713,0.134,1.073,0.158c1.336,0.092,2.657,0.128,3.974,0.549c1.506,0.483,2.636-0.404,2.497-2.009  c-0.133-1.528-0.53-3.051-0.97-4.529C18.089,27.179,17.469,25.235,17.557,23.03z"></path><path fill-rule="evenodd" clip-rule="evenodd" d="M73.136,23.341c0.446,0.414,0.908,0.813,1.339,1.245  c2.007,2.01,3.783,4.191,4.919,6.827c0.243,0.566,0.437,1.167,0.558,1.771c0.237,1.189-0.187,1.819-1.36,2.105  c-0.35,0.085-0.713,0.134-1.073,0.159c-1.337,0.092-2.657,0.127-3.974,0.549c-1.506,0.482-2.637-0.405-2.496-2.009  c0.132-1.528,0.529-3.051,0.969-4.529C72.602,27.49,73.224,25.546,73.136,23.341z"></path><path fill-rule="evenodd" clip-rule="evenodd" d="M24.84,28.494c1.051,4.293,2.877,8.097,5.794,11.305  c0.838,0.92,1.885,1.72,2.973,2.33c2.079,1.165,4.294,0.72,5.947-1.012c1.707-1.789,2.635-4,3.021-6.374  c0.91-5.596-0.162-10.834-3.329-15.566c-1.604-2.398-4.031-3.522-6.822-3.844c-2.47-0.285-4.389,0.76-5.797,2.756  c-1.786,2.531-2.349,5.375-2.054,8.418C24.639,27.204,24.757,27.894,24.84,28.494z"></path><path fill-rule="evenodd" clip-rule="evenodd" d="M80.896,39.418c-1.619-2.375-4.213-2.947-6.795-1.678  c-1.695,0.833-3.04,2.091-4.094,3.622c-3.335,4.841-4.962,10.204-4.664,16.094c0.053,1.023,0.313,2.067,0.65,3.04  c0.831,2.391,2.836,3.516,5.327,3.075c3.335-0.589,5.979-2.309,7.984-5.01c2.978-4.008,4.322-10.588,3.19-15.442  C82.556,43.091,81.646,40.517,80.896,39.418z"></path></svg>